<svg version="1.1" xmlns="http://www.w3.org/2000/svg" xmlns:xlink="http://www.w3.org/1999/xlink" viewBox="0 0 172 172"><g fill="none" fill-rule="nonzero" stroke="none" stroke-width="1" stroke-linecap="butt" stroke-linejoin="miter" stroke-miterlimit="10" stroke-dasharray="" stroke-dashoffset="0" font-family="none" font-weight="none" font-size="none" text-anchor="none" style="mix-blend-mode: normal"><path d="M0,172v-172h172v172z" fill="none"></path><g fill="#2a7ae4"><path d="M87.34375,8.0625c0,0 -5.375,3.75175 -5.375,10.75c0,0 2.53024,1.0107 3.72681,1.48547c-2.10867,3.72388 -2.2735,8.70964 0.78735,11.76831c1.6125,1.6125 3.75876,2.338 5.97864,2.35681c2.96969,0.02687 6.06098,-1.21882 8.14648,-3.30164c1.06706,-1.06868 1.66992,-2.41865 1.95264,-3.86853c0.72179,0.31378 1.63306,0.68677 2.25183,0.96582c1.34375,-12.09375 -10.33075,-18.50075 -17.46875,-20.15625zM59.125,16.125c-10.75,0 -18.8125,10.75 -18.8125,20.15625c0,5.73725 3.02534,8.13165 6.20435,9.08081c-1.34886,2.83558 -2.46443,5.9399 -3.2229,9.38001c-1.34644,6.10331 1.98182,12.29086 7.67932,14.85473l15.6106,7.45361l-12.83911,23.32141c-3.95461,-2.28923 -8.53399,-3.62183 -13.43225,-3.62183c-14.84306,0 -26.875,12.03194 -26.875,26.875c0,14.84306 12.03194,26.875 26.875,26.875c14.84306,0 26.875,-12.03194 26.875,-26.875c0,-5.92162 -1.93627,-11.37926 -5.18079,-15.82056l19.78882,-29.07434c2.40531,-3.53406 1.83031,-8.30517 -1.349,-11.16467l-14.10937,-12.68689c1.26581,-7.32075 8.06775,-10.75 8.06775,-10.75l5.71094,12.57141c0.63962,1.40556 1.85244,2.46696 3.32788,2.91846l15.75757,4.79236l-1.27026,1.27026c-1.38675,1.38675 -1.57492,3.56585 -0.44617,5.17029l10.24609,14.56079c-5.10909,4.89036 -8.29346,11.76881 -8.29346,19.40039c0,13.6103 10.12411,24.82779 23.24793,26.60205l-12.49793,8.33545l-12.93359,-2.52478c-2.3435,-0.45687 -4.76641,0.21198 -6.54553,1.80566l-12.77087,11.46912h75.25l-7.41687,-27.18994c4.58354,-4.82013 7.41687,-11.32068 7.41687,-18.49756c0,-14.84306 -12.03194,-26.875 -26.875,-26.875c-1.64206,0 -3.24411,0.16923 -4.80286,0.45142l3.50635,7.67407c0.43,-0.02957 0.85845,-0.06299 1.29651,-0.06299c10.37375,0 18.8125,8.43875 18.8125,18.8125c0,10.37375 -8.43875,18.8125 -18.8125,18.8125c-10.37375,0 -18.8125,-8.43875 -18.8125,-18.8125c0,-4.88925 1.90517,-9.31699 4.97607,-12.66065l10.54004,14.98071c0.78475,1.11531 2.03313,1.71118 3.30163,1.71118c0.80356,0 1.61069,-0.23499 2.31482,-0.73486c1.81944,-1.28194 2.25826,-3.79433 0.97632,-5.61645l-23.58386,-33.50977l2.98145,-2.9762c0.07286,-0.07273 0.12285,-0.15946 0.18896,-0.23621l2.1311,-1.14429c0.90569,-0.48913 1.35786,-1.53565 1.0918,-2.53003l-0.44092,-1.66394c-0.29563,-1.10994 -1.17839,-1.96246 -2.29907,-2.21509l-3.91052,-0.88184l-17.93066,-6.48779l-8.94958,-25.72546c-1.02662,-2.95356 -4.33947,-4.43354 -7.20166,-3.17041c-0.32409,0.14294 -0.72085,0.35424 -1.06555,0.5144c-1.05263,-2.36395 -3.91386,-6.34082 -11.49536,-6.34082zM85.52759,87.17053l-10.26184,11.01245l2.39881,15.61585c0.16393,1.06963 0.95431,1.93072 2.00512,2.19409l9.01782,2.25708l1.53796,-2.62976c0.63156,-1.07769 0.43852,-2.44688 -0.46716,-3.30688l-1.95789,-1.85816zM40.3125,104.8125c10.37375,0 18.8125,8.43875 18.8125,18.8125c0,10.37375 -8.43875,18.8125 -18.8125,18.8125c-10.37375,0 -18.8125,-8.43875 -18.8125,-18.8125c0,-10.37375 8.43875,-18.8125 18.8125,-18.8125zM40.3125,118.25c-2.96853,0 -5.375,2.40647 -5.375,5.375c0,2.96853 2.40647,5.375 5.375,5.375c2.96853,0 5.375,-2.40647 5.375,-5.375c0,-2.96853 -2.40647,-5.375 -5.375,-5.375z"></path></g></g></svg>