<svg version="1.1" xmlns="http://www.w3.org/2000/svg" xmlns:xlink="http://www.w3.org/1999/xlink" viewBox="0 0 172 172"><g fill="none" fill-rule="nonzero" stroke="none" stroke-width="1" stroke-linecap="butt" stroke-linejoin="miter" stroke-miterlimit="10" stroke-dasharray="" stroke-dashoffset="0" font-family="none" font-weight="none" font-size="none" text-anchor="none" style="mix-blend-mode: normal"><path d="M0,172v-172h172v172z" fill="none"></path><g fill="#2a7ae4"><path d="M86,7.16667c-7.91608,0 -14.33333,6.41725 -14.33333,14.33333c0,7.91608 6.41725,14.33333 14.33333,14.33333c7.91608,0 14.33333,-6.41725 14.33333,-14.33333c0,-7.91608 -6.41725,-14.33333 -14.33333,-14.33333zM75.27799,41.20833c-8.90202,0 -16.12407,7.74546 -15.49511,16.62891c0.00034,0.00466 -0.00034,0.00934 0,0.014l2.43555,37.1071h-22.80176v-12.54167c0,-1.978 -1.60533,-3.58333 -3.58333,-3.58333h-10.75c-1.978,0 -3.58333,1.60533 -3.58333,3.58333v12.54167c-1.93842,-0.02741 -3.74144,0.99102 -4.71865,2.66532c-0.97721,1.6743 -0.97721,3.74507 0,5.41937c0.97721,1.6743 2.78023,2.69273 4.71865,2.66532v12.54167c0,1.978 1.60533,3.58333 3.58333,3.58333h10.75c1.978,0 3.58333,-1.60533 3.58333,-3.58333v-12.54167h24.21549c0.91171,1.63863 2.42928,2.8547 4.22722,3.38737l-5.10905,45.98845c-0.43678,3.93485 2.39897,7.47875 6.33382,7.91553c3.93485,0.43678 7.47875,-2.39897 7.91553,-6.33382l0.22396,-2.00163l9.22428,-48.85791l10.2041,45.1276l0.90283,6.00488c0.32823,2.57809 2.02632,4.7765 4.43784,5.74542c2.41152,0.96892 5.15861,0.55652 7.17933,-1.07779c2.02072,-1.63431 2.99843,-4.23442 2.5552,-6.79524l-6.90772,-46.05143c1.47528,-0.59943 2.70896,-1.67305 3.50635,-3.05143h24.25749v12.54167c0,1.978 1.60533,3.58333 3.58333,3.58333h10.75c1.978,0 3.58333,-1.60533 3.58333,-3.58333v-12.54167c1.93842,0.02741 3.74144,-0.99102 4.71865,-2.66532c0.97721,-1.6743 0.97721,-3.74507 0,-5.41937c-0.97721,-1.6743 -2.78023,-2.69273 -4.71865,-2.66532v-12.54167c0,-1.978 -1.60533,-3.58333 -3.58333,-3.58333h-10.75c-1.978,0 -3.58333,1.60533 -3.58333,3.58333v12.54167h-22.80176l2.44254,-37.14909l-0.007,0.04199c0.63841,-8.88931 -6.58476,-16.6429 -15.49511,-16.6429z"></path></g></g></svg>